<svg version="1.1" id="Layer_1" xmlns="http://www.w3.org/2000/svg" xmlns:xlink="http://www.w3.org/1999/xlink" x="0px" y="0px" width="100%" viewBox="0 0 512 512" enable-background="new 0 0 512 512" xml:space="preserve">
<path fill="#000000" opacity="1.000000" stroke="none" d="&#xA;M276.999146,469.389954 &#xA;&#x9;C251.532745,470.453918 227.084869,466.549622 202.846664,461.250641 &#xA;&#x9;C193.770432,459.266418 184.930374,456.158600 176.043259,453.369812 &#xA;&#x9;C171.075607,451.810974 167.912308,446.760803 168.081436,441.379303 &#xA;&#x9;C168.267838,435.448792 171.457367,430.900208 177.098434,429.682800 &#xA;&#x9;C185.191055,427.936310 193.566040,427.652039 201.486710,424.898224 &#xA;&#x9;C204.950638,423.693909 208.599442,422.879730 211.602890,420.719269 &#xA;&#x9;C220.452332,414.353577 233.232147,418.639557 240.371033,422.935822 &#xA;&#x9;C243.636383,424.900940 243.178726,427.155670 239.814835,428.805634 &#xA;&#x9;C235.478104,430.932739 231.153702,433.086884 226.781784,435.139465 &#xA;&#x9;C224.774933,436.081696 222.837952,436.975983 222.408035,440.125031 &#xA;&#x9;C226.372253,441.896423 230.701019,443.438232 235.039474,443.444031 &#xA;&#x9;C253.837234,443.469269 272.499786,447.007538 291.325439,445.627167 &#xA;&#x9;C309.956635,444.261017 328.850006,442.387848 345.915192,434.907990 &#xA;&#x9;C364.230042,426.880341 380.675659,415.243103 392.448181,398.274414 &#xA;&#x9;C406.032684,378.694031 413.047913,356.793976 415.705872,333.298126 &#xA;&#x9;C417.838013,314.450256 420.802979,295.798431 427.850891,277.990967 &#xA;&#x9;C431.612976,268.485657 437.889282,261.237488 445.967346,255.302994 &#xA;&#x9;C448.115540,253.724854 450.278961,252.165497 452.385529,250.533188 &#xA;&#x9;C456.484375,247.357132 456.740295,245.031433 452.569489,241.887482 &#xA;&#x9;C445.835754,236.811508 439.407867,231.346008 431.290955,228.193298 &#xA;&#x9;C419.061890,223.443375 403.546417,226.841599 393.865906,237.235199 &#xA;&#x9;C387.397247,244.180344 381.565247,251.631729 375.803802,259.186432 &#xA;&#x9;C370.293610,266.411621 364.114105,272.951935 355.087402,276.599243 &#xA;&#x9;C342.109406,281.843140 331.605682,276.281189 321.339905,270.110382 &#xA;&#x9;C309.857117,263.207977 300.989197,253.124771 291.521088,243.763062 &#xA;&#x9;C282.056854,234.405167 272.085999,225.547348 258.270966,222.747955 &#xA;&#x9;C248.099960,220.686981 238.097092,221.429825 228.121643,223.578537 &#xA;&#x9;C224.023087,224.461395 222.883072,227.964325 225.668777,232.227951 &#xA;&#x9;C228.936447,237.229248 232.397354,242.228882 236.504364,246.532684 &#xA;&#x9;C246.761993,257.281860 258.525940,266.158325 270.911224,274.460724 &#xA;&#x9;C289.084991,286.643372 301.604828,303.437866 305.890320,325.302246 &#xA;&#x9;C307.631073,334.183777 305.941528,343.104492 303.591919,351.905212 &#xA;&#x9;C300.270721,364.345001 294.558685,375.437958 286.843964,385.669403 &#xA;&#x9;C283.941498,389.518707 280.463043,391.382233 275.755554,391.026459 &#xA;&#x9;C272.106750,390.750702 268.399872,390.680023 264.839783,389.937775 &#xA;&#x9;C260.457825,389.024139 260.204590,387.403290 262.911896,383.815277 &#xA;&#x9;C266.406799,379.183441 270.447784,374.971405 273.150970,369.714874 &#xA;&#x9;C274.862732,366.386261 274.412109,364.483276 270.809052,363.307953 &#xA;&#x9;C251.440140,356.990051 233.930634,347.052795 217.698914,334.966309 &#xA;&#x9;C200.031769,321.810974 183.586380,307.251678 170.013367,289.716827 &#xA;&#x9;C167.262955,286.163605 164.355530,282.730560 161.478821,279.276855 &#xA;&#x9;C159.335815,276.704010 157.100601,276.418854 154.863693,279.199158 &#xA;&#x9;C149.544312,285.810730 144.226685,292.423676 138.906540,299.034637 &#xA;&#x9;C136.677567,301.804413 136.703308,304.827454 137.848862,308.002869 &#xA;&#x9;C140.427017,315.149261 144.849426,321.253326 149.285538,327.242859 &#xA;&#x9;C161.574371,343.834778 178.226761,355.520782 194.927155,367.145447 &#xA;&#x9;C208.245438,376.415863 222.253998,384.347748 237.445847,390.102661 &#xA;&#x9;C250.706619,395.126099 264.253662,399.573486 278.531006,399.424866 &#xA;&#x9;C289.330170,399.312500 299.147675,394.762207 308.348907,389.139252 &#xA;&#x9;C318.867035,382.711487 327.035187,373.684570 335.362579,364.840576 &#xA;&#x9;C338.382111,361.633728 341.629578,358.865570 345.902985,357.520050 &#xA;&#x9;C351.985657,355.604797 356.860199,358.808807 357.618805,365.099731 &#xA;&#x9;C358.751465,374.492035 352.735657,380.803467 347.522888,387.049133 &#xA;&#x9;C337.121094,399.512085 323.931335,408.724609 309.179688,415.204926 &#xA;&#x9;C298.490173,419.900787 287.046722,421.765900 275.082825,420.662598 &#xA;&#x9;C267.625946,419.974854 260.221252,419.174591 252.889893,417.772644 &#xA;&#x9;C243.180435,415.915955 234.322067,411.484283 225.317703,407.720215 &#xA;&#x9;C210.898453,401.692688 196.708054,395.076630 183.876282,385.913788 &#xA;&#x9;C174.650696,379.325989 165.906738,372.138428 157.070038,365.061340 &#xA;&#x9;C156.160370,364.332855 155.301407,363.541351 154.399658,362.802643 &#xA;&#x9;C149.401581,358.708160 146.047379,359.445679 145.151062,366.331268 &#xA;&#x9;C143.221527,381.154114 142.051559,396.067871 139.534119,410.827881 &#xA;&#x9;C138.259766,418.299561 140.401413,425.734985 141.646484,433.114380 &#xA;&#x9;C143.069672,441.549683 143.125366,449.555359 137.446381,456.875214 &#xA;&#x9;C135.027344,459.993195 132.964478,462.363617 128.624786,462.071655 &#xA;&#x9;C123.861984,461.751221 121.378647,459.054260 120.096558,454.939728 &#xA;&#x9;C116.988228,444.964417 116.146988,434.831024 117.150528,424.359344 &#xA;&#x9;C118.753571,407.631989 120.425308,390.919403 122.676743,374.267456 &#xA;&#x9;C123.632751,367.196655 124.471970,360.100342 125.743431,353.084320 &#xA;&#x9;C127.561829,343.050354 123.774590,334.063049 120.779289,324.981506 &#xA;&#x9;C117.430099,314.826965 111.733574,305.703644 107.105606,296.113831 &#xA;&#x9;C98.997421,279.312653 91.696053,262.200836 85.323654,244.666565 &#xA;&#x9;C82.990913,238.247818 79.887444,232.109161 76.308685,225.998901 &#xA;&#x9;C75.074318,240.001022 74.348755,253.851166 76.548943,267.598541 &#xA;&#x9;C77.346169,267.723480 77.729980,267.914825 77.975876,267.802948 &#xA;&#x9;C84.206673,264.968414 84.200310,264.964508 86.968361,271.443817 &#xA;&#x9;C87.753380,273.281342 88.548172,275.115265 89.372650,276.935333 &#xA;&#x9;C91.597900,281.847595 91.363815,286.335815 88.316322,291.080078 &#xA;&#x9;C80.283844,303.584808 76.377609,317.290863 77.171082,332.291565 &#xA;&#x9;C77.513954,338.773529 77.190239,345.288757 77.285767,351.787170 &#xA;&#x9;C77.310883,353.494995 76.686447,355.508759 79.227142,357.141693 &#xA;&#x9;C88.298027,342.585358 93.675156,325.898499 104.562820,312.474609 &#xA;&#x9;C113.370560,318.662201 116.620956,332.931335 111.524445,341.749207 &#xA;&#x9;C99.681900,362.238983 91.974335,384.397766 86.107796,407.136993 &#xA;&#x9;C82.681511,420.417603 79.334900,433.855072 79.068291,447.779663 &#xA;&#x9;C79.015717,450.525330 78.031197,453.367065 76.968147,455.955719 &#xA;&#x9;C74.767647,461.314148 67.694626,464.148499 62.722107,461.330780 &#xA;&#x9;C57.200176,458.201752 53.000195,453.803802 52.789734,446.786530 &#xA;&#x9;C52.091152,423.494049 50.232952,400.221069 50.907936,376.907501 &#xA;&#x9;C51.456730,357.952454 52.871483,339.023254 53.484589,320.069092 &#xA;&#x9;C53.877541,307.920898 53.681889,295.745026 53.452579,283.587158 &#xA;&#x9;C52.912659,254.960434 50.962494,226.239059 54.043324,197.752319 &#xA;&#x9;C56.131649,178.442688 63.862629,160.517868 78.818810,147.259750 &#xA;&#x9;C98.252731,130.032272 119.363876,115.124573 142.332230,102.676514 &#xA;&#x9;C161.783737,92.134453 179.819702,79.261215 197.071457,65.251740 &#xA;&#x9;C211.134293,53.831871 225.637192,42.678471 243.668289,37.890175 &#xA;&#x9;C254.619888,34.981899 265.367432,34.931347 276.429840,38.785439 &#xA;&#x9;C292.088837,44.240944 305.215637,53.750778 318.874329,62.586052 &#xA;&#x9;C327.799927,68.359688 336.750244,74.109276 346.230988,79.067825 &#xA;&#x9;C353.389160,82.811630 359.587830,88.350082 366.393585,92.815407 &#xA;&#x9;C384.482330,104.683571 402.244263,117.018669 419.614838,129.907486 &#xA;&#x9;C429.206848,137.024658 438.609497,144.400208 448.008911,151.772202 &#xA;&#x9;C451.429779,154.455170 453.329559,158.049194 453.458557,162.546661 &#xA;&#x9;C453.719818,171.654495 447.444702,176.261063 438.723846,173.321396 &#xA;&#x9;C431.954987,171.039749 426.184174,166.893372 420.969849,162.369446 &#xA;&#x9;C414.734497,156.959686 407.570404,153.039032 400.779999,148.657700 &#xA;&#x9;C386.047913,139.152145 372.298737,128.388092 358.596619,117.571869 &#xA;&#x9;C343.756348,105.857239 327.719818,102.334496 309.409485,107.198326 &#xA;&#x9;C297.190491,110.444092 285.021790,113.597351 273.274506,118.423256 &#xA;&#x9;C258.402649,124.532738 245.922668,134.125046 233.662491,144.137268 &#xA;&#x9;C226.569901,149.929413 219.525864,155.784714 213.067810,162.300690 &#xA;&#x9;C212.126938,163.250015 211.154846,164.348068 209.661423,163.992050 &#xA;&#x9;C207.817184,163.552414 207.810608,161.915939 207.624649,160.408798 &#xA;&#x9;C207.380295,158.428284 207.023926,156.461838 206.733719,154.486710 &#xA;&#x9;C205.322327,144.880753 208.091049,137.383072 215.933044,130.909256 &#xA;&#x9;C233.277344,116.590958 252.001785,104.716713 272.633667,95.844429 &#xA;&#x9;C280.129272,92.621109 287.763123,89.720619 295.302368,86.596741 &#xA;&#x9;C297.603790,85.643143 300.193451,84.639320 300.523621,81.754341 &#xA;&#x9;C300.862396,78.794769 298.394226,77.481232 296.338043,76.066002 &#xA;&#x9;C286.824341,69.517937 277.004974,63.610542 265.349243,61.698963 &#xA;&#x9;C259.005737,60.658615 252.800858,60.803505 246.739731,63.449100 &#xA;&#x9;C231.353058,70.165154 217.557999,78.588631 209.655029,94.393913 &#xA;&#x9;C204.660538,104.382469 202.387329,115.073746 200.400894,125.857170 &#xA;&#x9;C196.261765,148.326736 199.212982,170.182922 206.202072,191.751984 &#xA;&#x9;C208.697769,199.453949 209.920929,198.644714 201.791885,203.407730 &#xA;&#x9;C199.924728,204.501755 198.149231,205.750946 196.307816,206.890411 &#xA;&#x9;C191.686630,209.749969 189.930847,209.103226 188.378586,203.988266 &#xA;&#x9;C187.749771,201.916336 187.234024,199.805725 186.514175,197.766617 &#xA;&#x9;C184.456909,191.939209 182.595581,191.263535 178.065567,195.267548 &#xA;&#x9;C172.829529,199.895615 167.924606,204.898499 162.883026,209.746048 &#xA;&#x9;C162.044556,210.552216 161.356216,211.568832 160.405579,212.195602 &#xA;&#x9;C151.061600,218.356171 152.635712,220.021210 156.919830,229.097748 &#xA;&#x9;C158.900192,233.293411 159.023560,235.928696 155.138092,238.764297 &#xA;&#x9;C152.079620,240.996338 149.137421,243.442657 146.975555,246.751236 &#xA;&#x9;C145.178833,249.500961 143.253220,249.041916 141.823669,246.100952 &#xA;&#x9;C140.805664,244.006622 139.690231,241.954208 138.517456,239.941849 &#xA;&#x9;C136.823547,237.035278 134.462189,236.331497 131.991455,238.790924 &#xA;&#x9;C126.567375,244.190155 121.249802,249.702209 116.048409,255.316132 &#xA;&#x9;C114.269455,257.236145 113.707047,259.734589 114.882698,262.306366 &#xA;&#x9;C117.166977,267.303284 119.329628,272.364777 121.838989,277.247192 &#xA;&#x9;C124.097343,281.641235 126.245872,281.952759 129.390717,278.355927 &#xA;&#x9;C140.010254,266.210205 150.868790,254.333954 162.549927,243.153748 &#xA;&#x9;C181.560577,224.958267 202.538147,210.001953 227.690628,201.692123 &#xA;&#x9;C243.041138,196.620621 258.234375,198.443954 273.075226,204.447952 &#xA;&#x9;C290.144531,211.353516 305.120636,221.018387 317.184357,235.267838 &#xA;&#x9;C323.248108,242.430206 329.860657,249.332932 339.080048,252.982361 &#xA;&#x9;C344.304443,255.050385 348.802887,255.381714 353.588715,251.877594 &#xA;&#x9;C358.524139,248.263947 362.344574,243.763519 365.975769,238.957977 &#xA;&#x9;C373.843964,228.545029 382.499969,219.187225 394.361511,212.842361 &#xA;&#x9;C411.209229,203.830353 427.564972,204.932541 443.929901,213.317932 &#xA;&#x9;C456.860870,219.943756 468.115051,229.116531 479.728302,237.726547 &#xA;&#x9;C483.466675,240.498169 487.300751,242.931213 488.716492,247.935593 &#xA;&#x9;C490.550842,254.419601 488.820648,257.718597 482.385986,259.365845 &#xA;&#x9;C471.016083,262.276459 459.682098,265.439056 452.718506,276.118591 &#xA;&#x9;C446.992371,284.900391 443.906250,294.550629 442.323883,304.977844 &#xA;&#x9;C439.606842,322.882599 439.276794,341.144379 435.166199,358.781036 &#xA;&#x9;C431.512604,374.456635 427.277039,390.158203 417.839233,403.675690 &#xA;&#x9;C401.214569,427.486664 381.051086,446.999420 352.716949,456.338135 &#xA;&#x9;C328.292236,464.388275 303.349762,469.523926 276.999146,469.389954 &#xA;M253.389069,289.220642 &#xA;&#x9;C248.876663,284.762634 243.369797,281.574951 238.489502,277.555176 &#xA;&#x9;C226.519485,267.695770 217.197495,255.653458 208.198914,243.237488 &#xA;&#x9;C204.266129,237.811157 201.961975,237.276031 196.512573,240.835663 &#xA;&#x9;C189.121994,245.663284 182.545883,251.560150 176.072189,257.545563 &#xA;&#x9;C173.785660,259.659637 174.902115,261.698547 176.280304,263.755981 &#xA;&#x9;C183.254807,274.167755 191.778214,283.245605 200.471710,292.203796 &#xA;&#x9;C208.262955,300.232208 217.622040,306.327118 226.143677,313.451630 &#xA;&#x9;C241.248413,326.079865 258.423035,335.077881 277.172089,341.004364 &#xA;&#x9;C282.381073,342.650879 284.204071,341.200134 284.596375,335.732849 &#xA;&#x9;C285.005737,330.028107 284.447662,324.414429 282.181244,319.103058 &#xA;&#x9;C276.484589,305.752869 265.470062,297.446960 253.389069,289.220642 &#xA;M142.268539,171.346878 &#xA;&#x9;C143.650177,179.617279 142.589172,188.301056 145.747086,196.413208 &#xA;&#x9;C148.985092,195.433411 150.693481,193.577393 152.458893,191.829071 &#xA;&#x9;C159.438354,184.917236 166.301529,177.884735 173.396240,171.093826 &#xA;&#x9;C177.256973,167.398407 179.072296,163.300354 178.856674,157.834808 &#xA;&#x9;C178.298111,143.676453 179.438782,129.634903 182.519073,115.747040 &#xA;&#x9;C183.236694,112.511589 183.843506,108.913719 181.450150,104.923950 &#xA;&#x9;C174.542084,109.611450 168.011154,114.404732 161.127060,118.621414 &#xA;&#x9;C152.791885,123.726898 148.192612,131.266800 145.401581,140.287003 &#xA;&#x9;C142.356430,150.128494 143.199356,160.356705 142.268539,171.346878 &#xA;M127.098137,208.220215 &#xA;&#x9;C125.902313,201.870956 123.260971,195.898895 122.548454,189.395233 &#xA;&#x9;C121.228523,177.347137 119.320053,165.356552 120.048615,153.165298 &#xA;&#x9;C120.143341,151.580246 120.474701,149.616898 118.669243,148.692215 &#xA;&#x9;C117.086723,147.881729 115.873978,149.098267 114.691841,150.028809 &#xA;&#x9;C112.475349,151.773605 110.133148,153.373077 108.024826,155.238266 &#xA;&#x9;C100.819435,161.612701 93.211891,167.671387 88.916580,176.623001 &#xA;&#x9;C86.222420,182.237747 84.360695,187.990326 86.197197,194.393829 &#xA;&#x9;C90.063339,207.874268 96.219704,220.395599 102.161339,233.005676 &#xA;&#x9;C103.813622,236.512344 105.984810,235.885727 108.355354,233.446426 &#xA;&#x9;C113.447975,228.206131 118.431168,222.820862 123.914116,218.013870 &#xA;&#x9;C126.911278,215.386215 128.387268,212.847839 127.098137,208.220215 &#xA;z"></path>
</svg>